# xmcd
#
# Track frame offsets:
#	150
#	12460
#	26768
#	41214
#	57306
#	71822
#	83668
#	97810
#	115719
#	132674
#
# Disc length: 1933 seconds
#
# Revision: 0
# Processed by: cddbd v1.5.2PL0 Copyright (c) Steve Scherf et al.
# Submitted via: dBpowerAMP V4.0
#
DISCID=87078b0a
DTITLE=Sarah Ostafie - My Side Of The Song
DYEAR=2007
DGENRE=Country
TTITLE0=Two Drops At A Time
TTITLE1=Highway 99
TTITLE2=Drinkin' Man
TTITLE3=Alligator Skin
TTITLE4=The Day I Fall
TTITLE5=Five More Sleeps Alone
TTITLE6=Do You Ever Think About It
TTITLE7=My Side Of The Song
TTITLE8=What The Cat Drug In
TTITLE9=Not Even Close
EXTD=
EXTT0=
EXTT1=
EXTT2=
EXTT3=
EXTT4=
EXTT5=
EXTT6=
EXTT7=
EXTT8=
EXTT9=
PLAYORDER=
